<svg width="22" height="22" viewBox="0 0 22 22" fill="none" xmlns="http://www.w3.org/2000/svg">
<rect width="22" height="22" fill="#E5E5E5"/>
<g id="Homepage" clip-path="url(#clip0_1669_162202)">
<rect width="1903" height="4948" transform="translate(-842 -72)" fill="white"/>
<g id="Group 57">
</g>
<g id="Rectangle 6" filter="url(#filter0_b_1669_162202)">
<rect x="-19" y="-26" width="558" height="68" rx="13.5124" fill="#D2D2D2" fill-opacity="0.41"/>
</g>
<path id="Vector" fill-rule="evenodd" clip-rule="evenodd" d="M13.7043 15.0293C12.0195 16.3755 9.88322 17.0254 7.73418 16.8456C5.58514 16.6659 3.58651 15.6701 2.14876 14.0627C0.711007 12.4554 -0.056715 10.3585 0.00326768 8.20282C0.0632503 6.04711 0.946384 3.9962 2.47129 2.47129C3.9962 0.946385 6.04711 0.0632503 8.20282 0.00326769C10.3585 -0.056715 12.4554 0.711007 14.0627 2.14876C15.6701 3.58651 16.6659 5.58515 16.8456 7.73418C17.0254 9.88322 16.3755 12.0195 15.0293 13.7043L21.4743 20.1481C21.5664 20.2339 21.6403 20.3374 21.6915 20.4524C21.7428 20.5674 21.7703 20.6915 21.7726 20.8174C21.7748 20.9433 21.7516 21.0683 21.7045 21.1851C21.6573 21.3018 21.5871 21.4078 21.4981 21.4969C21.4091 21.5859 21.3031 21.6561 21.1863 21.7032C21.0696 21.7504 20.9445 21.7735 20.8187 21.7713C20.6928 21.7691 20.5686 21.7415 20.4536 21.6903C20.3386 21.6391 20.2351 21.5652 20.1493 21.4731L13.7043 15.0293ZM3.79682 13.0768C2.87937 12.1593 2.25451 10.9904 2.00121 9.71779C1.74791 8.44522 1.87754 7.12612 2.37371 5.9272C2.86988 4.72828 3.71033 3.70335 4.78884 2.98195C5.86734 2.26055 7.1355 1.87505 8.43303 1.87417C9.73057 1.8733 10.9992 2.25709 12.0787 2.97704C13.1582 3.69699 14 4.72079 14.4978 5.91904C14.9956 7.11729 15.127 8.43621 14.8754 9.70912C14.6238 10.982 14.0005 12.1518 13.0843 13.0706L13.0781 13.0768L13.0718 13.0818C11.8407 14.3101 10.1724 14.9995 8.43328 14.9985C6.69422 14.9976 5.02663 14.3064 3.79682 13.0768Z" fill="#3D3D3D"/>
</g>
<defs>
<filter id="filter0_b_1669_162202" x="-26.8822" y="-33.8822" width="573.764" height="83.7644" filterUnits="userSpaceOnUse" color-interpolation-filters="sRGB">
<feFlood flood-opacity="0" result="BackgroundImageFix"/>
<feGaussianBlur in="BackgroundImageFix" stdDeviation="3.9411"/>
<feComposite in2="SourceAlpha" operator="in" result="effect1_backgroundBlur_1669_162202"/>
<feBlend mode="normal" in="SourceGraphic" in2="effect1_backgroundBlur_1669_162202" result="shape"/>
</filter>
<clipPath id="clip0_1669_162202">
<rect width="1903" height="4948" fill="white" transform="translate(-842 -72)"/>
</clipPath>
</defs>
</svg>
